<mxfile host="app.diagrams.net" modified="2024-04-03T01:17:46.867Z" agent="Mozilla/5.0 (Windows NT 10.0; Win64; x64) AppleWebKit/537.36 (KHTML, like Gecko) Chrome/123.0.0.0 Safari/537.36 Edg/123.0.0.0" version="24.2.1" etag="kfQPx8ho3WrO7CMP-2-I" type="github">
  <diagram name="第 1 页" id="k8IxIvTIii1jW4I5UCoE">
    <mxGraphModel>
      <root>
        <mxCell id="0" />
        <mxCell id="1" parent="0" />
      </root>
    </mxGraphModel>
  </diagram>
</mxfile>
